<?xml version="1.0" encoding="UTF-8"?>
<svg id="Camada_1" data-name="Camada 1" xmlns="http://www.w3.org/2000/svg" viewBox="0 0 444.83 471.03">
  <defs>
    <style>
      .cls-1 {
        fill: #a08e83;
      }
    </style>
  </defs>
  <path class="cls-1" d="m304.24,125.55c-3.11,44.88-28.45,71.65-52,98.69-29.23,33.57-35.07,105.11-9.88,142.29,7.6,11.22,15.57,22.27,22.12,34.1,11.99,21.65,6.43,42.34-10.07,57.89-18.77,17.68-43.48,14.75-62.8,2.82-19.26-11.89-25.72-34.55-13.74-55.16,20.72-35.64,41.19-69.3,39.13-113.98-1.99-43-28.52-70.11-50.95-101.01-35.31-48.66-37.32-72.63-2.02-122.43,15.61-22.03,28.66-45.88,50.2-63.32,5.93-4.8,11.44-8.28,16.89-2.18,33.34,37.31,63.27,76.69,73.11,122.29Zm-81.88,95.21c16.74-21.79,36.05-41.86,49.31-65.34,21.26-37.65-5.94-67.61-24.01-96.11-23.92-37.72-25.92-36.4-51.65,1.32-2.96,4.34-6.83,8.05-9.95,12.29-23.11,31.45-27.12,69.36-9.28,91.99,14.64,18.57,29.89,36.67,45.59,55.84Zm.31,149.95c-14.18,17.57-24.29,33.01-23.63,53.3.44,13.6,9.03,22.07,20.83,22.22,12.49.15,24.28-5.87,24.97-21.78.91-20.86-14.94-33.94-22.16-53.73Z"/>
  <path class="cls-1" d="m405.28,288.34c11.54-25.52,9.9-43.51-2.28-60.19-17.15-23.48-40.94-32.63-69.02-26.98-51.35,10.32-90.2,63.95-84.97,116.28,1.33,13.28,9.92,23.14,18.87,33.65,11.11-39.9,20.47-48.2,46.27-41.26,14.08,3.79,25.21,11.39,27.41,27.28,2.61,18.8-.57,35.84-17.35,47.42-14.08,9.71-29.6,9.17-43.98,1.82-33.3-17.03-51.48-55.54-46.86-96.49,7.2-63.77,60.63-110.18,124.33-107.98,38.21,1.32,71.65,23.44,82.6,54.64,11.43,32.57,1.06,64.85-29.14,90.68-17.37,14.86-49.88,11.52-66.37-6.83-20.16-22.43-22.15-55.9-3.54-72.13,11.01-9.61,24.08-12.54,38.48-7.31,13.71,4.99,21.95,13.87,22.67,28.96.19,3.87,1.17,7.69,2.89,18.43Zm-45.03,9.34c18.49-5.23,31.51-10.93,25.62-28.92-3.77-11.53-14.12-15.1-24.63-12.44-12.77,3.23-21.14,12.84-17.94,26.53,4.09,17.47,15.25,27.64,37.47,24.18-6.69-3.04-11.24-5.12-20.53-9.35Zm-43.51,47.97c.33-8.27-5.03-13.46-14.86-14.07-8.88-.55-14.14,4.96-13.31,12.89.85,8.1,1.94,19.7,12.17,20.4,9.01.61,16.4-6.11,15.99-19.22Z"/>
  <path class="cls-1" d="m60.35,306.76c-19.56-15.31-23.68-33.85-8.85-53.18,12.22-15.93,31.75-15.48,46.92-6.09,18.39,11.39,23.66,29.55,12.99,50.65-16.6,32.84-39.59,45.79-65.48,35.9-31.89-12.18-52.66-52.71-43.91-85.68,17.26-65.02,106.86-88.92,158.08-44.22,34.16,29.81,54.32,63.52,49.85,109.67-5.02,51.88-31.76,77.84-79.59,75.15-19.17-1.08-28.44-19.65-28.62-39.89-.18-21.02,10.56-34.56,30.52-37.4,31.27-4.44,34.93.6,39.1,43.65,20.28-12.16,30.47-42.22,19.56-76.59-19-59.89-66.66-89.76-128.87-70.39-26.93,8.38-30.86,34.31-29.37,59.1,1.1,18.33,8.99,33.58,27.68,39.32Zm37.57-25.45c-.28-13.21-3.96-23.74-19.96-23.22-10.13.33-19.37,2.99-19.34,15.7.03,17.63,14.5,22.6,27.08,25.08,9.97,1.97,12.32-8.55,12.23-17.55Zm58.96,65.64c-2.55-7.23-.26-17.13-11.98-16.93-10.73.18-15.76,5.91-16.31,16.48-.63,11.97,6.35,18.23,16.68,18.46,12.01.26,7.25-12.4,11.61-18Z"/>
</svg>