<?xml version="1.0" encoding="UTF-8"?>
<svg id="Camada_1" data-name="Camada 1" xmlns="http://www.w3.org/2000/svg" viewBox="0 0 233.11 105.85">
  <defs>
    <style>
      .cls-1 {
        fill: #a08e83;
      }

      .cls-2 {
        fill: #3d3435;
      }
    </style>
  </defs>
  <g>
    <path class="cls-1" d="m124.93,12.84c-.32,4.59-2.91,7.33-5.32,10.1-2.99,3.43-3.59,10.75-1.01,14.56.78,1.15,1.59,2.28,2.26,3.49,1.23,2.21.66,4.33-1.03,5.92-1.92,1.81-4.45,1.51-6.42.29-1.97-1.22-2.63-3.53-1.41-5.64,2.12-3.65,4.21-7.09,4-11.66-.2-4.4-2.92-7.17-5.21-10.33-3.61-4.98-3.82-7.43-.21-12.53,1.6-2.25,2.93-4.69,5.14-6.48.61-.49,1.17-.85,1.73-.22,3.41,3.82,6.47,7.85,7.48,12.51Zm-8.38,9.74c1.71-2.23,3.69-4.28,5.04-6.68,2.18-3.85-.61-6.92-2.46-9.83-2.45-3.86-2.65-3.72-5.28.14-.3.44-.7.82-1.02,1.26-2.36,3.22-2.77,7.1-.95,9.41,1.5,1.9,3.06,3.75,4.66,5.71Zm.03,15.34c-1.45,1.8-2.48,3.38-2.42,5.45.05,1.39.92,2.26,2.13,2.27,1.28.02,2.48-.6,2.55-2.23.09-2.13-1.53-3.47-2.27-5.5Z"/>
    <path class="cls-1" d="m135.26,29.5c1.18-2.61,1.01-4.45-.23-6.16-1.75-2.4-4.19-3.34-7.06-2.76-5.25,1.06-9.23,6.54-8.69,11.9.14,1.36,1.02,2.37,1.93,3.44,1.14-4.08,2.09-4.93,4.73-4.22,1.44.39,2.58,1.17,2.8,2.79.27,1.92-.06,3.67-1.77,4.85-1.44.99-3.03.94-4.5.19-3.41-1.74-5.27-5.68-4.79-9.87.74-6.52,6.2-11.27,12.72-11.05,3.91.13,7.33,2.4,8.45,5.59,1.17,3.33.11,6.63-2.98,9.28-1.78,1.52-5.1,1.18-6.79-.7-2.06-2.29-2.27-5.72-.36-7.38,1.13-.98,2.46-1.28,3.94-.75,1.4.51,2.25,1.42,2.32,2.96.02.4.12.79.3,1.89Zm-4.61.96c1.89-.53,3.22-1.12,2.62-2.96-.39-1.18-1.44-1.55-2.52-1.27-1.31.33-2.16,1.31-1.84,2.71.42,1.79,1.56,2.83,3.83,2.47-.68-.31-1.15-.52-2.1-.96Zm-4.45,4.91c.03-.85-.51-1.38-1.52-1.44-.91-.06-1.45.51-1.36,1.32.09.83.2,2.02,1.25,2.09.92.06,1.68-.63,1.64-1.97Z"/>
    <path class="cls-1" d="m99.98,31.38c-2-1.57-2.42-3.46-.91-5.44,1.25-1.63,3.25-1.58,4.8-.62,1.88,1.16,2.42,3.02,1.33,5.18-1.7,3.36-4.05,4.68-6.7,3.67-3.26-1.25-5.39-5.39-4.49-8.77,1.77-6.65,10.93-9.1,16.17-4.52,3.49,3.05,5.56,6.5,5.1,11.22-.51,5.31-3.25,7.96-8.14,7.69-1.96-.11-2.91-2.01-2.93-4.08-.02-2.15,1.08-3.54,3.12-3.83,3.2-.45,3.57.06,4,4.47,2.07-1.24,3.12-4.32,2-7.84-1.94-6.13-6.82-9.18-13.18-7.2-2.75.86-3.16,3.51-3,6.05.11,1.87.92,3.43,2.83,4.02Zm3.84-2.6c-.03-1.35-.41-2.43-2.04-2.38-1.04.03-1.98.31-1.98,1.61,0,1.8,1.48,2.31,2.77,2.57,1.02.2,1.26-.87,1.25-1.8Zm6.03,6.72c-.26-.74-.03-1.75-1.23-1.73-1.1.02-1.61.6-1.67,1.69-.06,1.22.65,1.87,1.71,1.89,1.23.03.74-1.27,1.19-1.84Z"/>
  </g>
  <g>
    <path class="cls-2" d="m9.97,83.37c-.02,5.63-.07,11.26-.04,16.88,0,1.78.5,3.37,2.48,3.97,0,.06.03.15,0,.18-.88.94-9.7.87-10.58-.08,1.84-1.25,2.31-3.02,2.3-5.17-.05-11.3-.03-22.59,0-33.89,0-2.43-1.12-3.97-3.28-5.03,2.65.58,5.64-1.56,7.96,1.24.89,1.08,1.1,2.35,1.11,3.7.05,5.61.09,11.23.14,16.84-.03.45-.06.9-.09,1.35Z"/>
    <path class="cls-2" d="m176.61,60.51c-2.24,1.48-4.34,3.04-5.56,5.62-.54,1.15-.67,2.34-1.14,3.7-.89-4.87-3.49-8.07-8.28-9.23-.02-.23-.04-.47-.06-.7,4.61,0,9.22-.02,13.83-.03.09.82.73.58,1.22.63Z"/>
    <path class="cls-2" d="m73.67,100.93c-.35-.02-.7-.04-1.05-.06,1.02-5.15,3.03-10.01,4.51-15.03,1.46-4.95,3.06-9.86,4.56-14.8.17-.56.41-1,.85-1.35-.01.83,1.28.93,1.05,1.88-1.73.01-1.38,1.69-1.65,2.49-1.93,5.83-3.4,11.81-5.51,17.59-1.11,3.03-1.85,6.18-2.77,9.28Z"/>
    <path class="cls-2" d="m112.31,101.99c-.89-1.16.14-2.28.12-3.44-.13-10.88-.11-21.77-.12-32.65,0-.7-.25-1.48.36-2.09.07,1.93.2,3.87.21,5.8.04,9.95.05,19.9.04,29.86,0,.86.29,1.85-.61,2.52Z"/>
    <path class="cls-2" d="m39.66,63.4c.92.32.59,1.11.6,1.71.02,11.65.02,23.3,0,34.95,0,.69.22,1.5-.63,1.94.01-12.87.02-25.74.03-38.61Z"/>
    <path class="cls-2" d="m176.61,60.51c-.49-.05-1.13.19-1.22-.63,6.04-.26,12.08-.32,18.11.03-.44.64-.45,1.7-1.6,1.62-.12-1.13-1.01-.66-1.57-.68-4.57-.19-9.16.29-13.72-.34Z"/>
    <path class="cls-2" d="m60.51,59.77c.01.35.03.69.04,1.04-4.72,0-9.45-.01-14.17,0-.65,0-1.54-.35-1.67.8-.56-.17-.85-.51-.69-1.13,1.61-.59,3.27-.85,4.98-.83,3.84.04,7.67.08,11.51.12Z"/>
    <path class="cls-2" d="m161.56,59.9c.02.23.04.47.06.7-4.96.48-9.9.14-14.85.2,0-.3,0-.6,0-.9h14.78Z"/>
    <path class="cls-2" d="m23.61,60.43c-.04.2-.08.39-.12.59-4.48,0-8.95,0-13.35,0-.21-.71.26-.78.67-.79,4.01-.04,8.02-.08,12.04-.09.26,0,.51.19.77.29Z"/>
    <path class="cls-2" d="m1.83,104.32c.88.95,9.7,1.02,10.58.08.03-.03,0-.12,0-.18.61.18,1.22.36,1.86.56-.98,1.24-12.59,1.48-14.27.34.47-.63,1.05-.93,1.83-.8Z"/>
    <path class="cls-2" d="m26.42,90.96c4.84.77,2.86,2,3.03,3.04.61,3.77-1.05,7.56,1.61,11.32-5.18-.71-4.21-2-4.3-3.12-.29-3.74-.26-7.49-.34-11.23Z"/>
    <path class="cls-2" d="m26.43,68.19c.91,2.1,1.06,4.2,0,6.31,0-2.1,0-4.2,0-6.31Z"/>
    <path class="cls-2" d="m170.24,99.83c-.98-.11-.29-1.36-1.09-1.59.18-.85.36-1.7.54-2.54.83,1.37.77,2.75.55,4.14Z"/>
    <path class="cls-2" d="m9.97,83.37c.03-.45.06-.9.09-1.35.31.08.62.16.93.24.02.26.04.51.07.77-.36.11-.72.23-1.08.34Z"/>
    <path class="cls-2" d="m57.67,85.79c.4.22.79.45,1.19.67-.03.75-.57.5-.9.39-.54-.18-.37-.65-.29-1.06Z"/>
    <path class="cls-2" d="m73.7,102.74c-.76-.37-.92-.75,0-1.13,0,.38,0,.75,0,1.13Z"/>
    <path class="cls-2" d="m58.24,78.45c.21.56,0,.82-.57.83-.16-.52-.03-.84.57-.83Z"/>
    <path class="cls-2" d="m170.23,101.3c-.18-.16-.35-.33-.53-.49.18-.11.35-.22.53-.33,0,.27,0,.54,0,.81Z"/>
    <path class="cls-2" d="m58.84,78.6c-.19-.07-.38-.13-.57-.2.35-.39.56-.38.57.2Z"/>
    <g>
      <path class="cls-2" d="m67.52,67.47c-.54-3.26-3.24-5.85-6.97-6.67-.01-.35-.03-.69-.04-1.04,2.18,0,4.37.05,6.55,0,1.11-.03,1.52.42,1.5,1.5-.04,2.06-.02,4.13-.02,6.19-.34,0-.68.01-1.02.02Z"/>
      <path class="cls-2" d="m67.52,67.47s.69,2.26.57,3.04c0,.04.47,0,.47,0l-.02-3.05-1.02.02Z"/>
    </g>
    <g>
      <path class="cls-2" d="m39.66,63.4c-.24-1.67-1.94-2.04-3.23-3.38,2.81.29,5.23-.39,7.59.45-.16.61.12.96.69,1.13.89.94,1.12,2.09,1.11,3.35-.02,4.09-.02,8.17-.02,12.26,0,5,0,5.03,5.12,4.99,1.68-.01,3.4.3,5.03-.47,1.08-.51,1.81-1.17,1.71-2.45.57-.02.79-.28.57-.83,0,0,.03-.04.03-.04.19.07.38.13.57.2,0,2.62.01,5.24.02,7.87-.4-.22-.79-.45-1.19-.67-.42-1.81-1.48-2.76-3.42-2.74-2.66.03-5.32-.03-7.98-.05-1.1-.03-.69.82-.69,1.31-.02,6.33-.02,12.66,0,18.99,0,.46-.33,1.2.6,1.28.34.04.69.08,1.03.13.01.3.03.61.04.91-4.87-.06-9.73-.06-14.6-.19-2.12-.05-4.26-.29-5.3-2.63-.55-3.1-.21-6.22-.33-9.33-.03-.86.37-1.87-.62-2.5-.4-1.61-.57-3.33-1.25-4.81-.88-1.91-2.28-3.28-4.77-3.15-3.1.17-6.23.03-9.34.03-.02-.25-.04-.51-.07-.77,2.56,0,5.14-.24,7.67.02,5.73.59,7.03-3.4,7.77-7.78,1.05-2.1.9-4.2,0-6.31-.18-2.89-1.45-5.24-3.56-7.17.04-.29.08-.58.12-.88,4.88.63,8.29,4.39,9.24,8.08,1.19,4.67.11,10.6-7.5,14.4,4.12,1.87,7.15,4.7,7.78,9.19.43,3.06.24,6.21.3,9.31.03,1.49.64,2.52,2.06,3.08,2.37.94,3.89.1,4.76-2.19.84-.44.63-1.25.63-1.94.01-11.65.02-23.3,0-34.95,0-.6.33-1.4-.6-1.71Z"/>
      <path class="cls-2" d="m46.19,104.57c-.93-.07-.6-.81-.6-1.28-.03-6.33-.03-12.66,0-18.99,0-.49-.4-1.34.69-1.31-.43,7.19-.07,14.38-.08,21.57Z"/>
      <g>
        <path class="cls-2" d="m75.94,105.31c-7.8.03-15.61.05-23.41.09-.66,0-1.32.09-1.98.14-.07-.29-.14-.58-.21-.87,3.11,0,6.23.06,9.33-.05,3.68-.13,6.46-2.71,7.85-7.02.34,0,.68,0,1.01.01v6.7c2.38-.24,3.22-1.86,4.07-3.45.35.02.7.04,1.05.06,0,.23.02.46.03.69-.91.38-.76.76,0,1.13.07,1.43,1.41,1.55,2.24,2.2,0,.12,0,.25,0,.37Z"/>
        <path class="cls-2" d="m67.53,97.6s.55-1.62.7-2.22h.31v2.23"/>
      </g>
      <polyline class="cls-2" points="47.23 104.7 50.35 104.68 50.56 105.55 47.27 105.61"/>
    </g>
    <polygon class="cls-2" points="115.22 59.8 116.51 59.8 115.38 60.62 115.22 59.8"/>
    <g>
      <g>
        <path class="cls-2" d="m112.31,101.99c.13,1.06-1.1,1.49-1.21,2.57,5.6,0,11.19.45,16.65-.17,3.19-.36,5.65-2.98,6.57-6.43.35,0,.7.01,1.05.02,0,1.29-.18,2.61.05,3.85.61,3.25-.89,3.72-3.77,3.69-13.15-.15-26.31-.06-39.47-.07-.75,0-1.49-.08-2.6-.14,3.75-2.25,3.83-2.51,2.1-7.98-1.92-6.1-3.91-12.19-5.85-18.29-.79-2.48-1.51-4.98-2.26-7.47.22-.95-1.07-1.05-1.05-1.88.85-3.27,1.6-6.58,3.5-10.25,1.69,5.76,3.1,10.87,4.68,15.93,1.89,6.05,3.85,12.08,5.9,18.07,1.03,3,1.3,6.29,3.21,8.95,1.04,1.44,2.2,2.71,4.37,1.86,1.91-.75,2.48-2.36,2.5-3.99.1-11.81.08-23.62.02-35.43,0-1.71-.78-3.23-2.59-3.91.03-.38.05-.75.08-1.13,3.67,0,7.33,0,11,0,.05.27.11.55.16.82-1.09.9-2.73,1.34-2.7,3.19-.62.61-.36,1.39-.36,2.09,0,10.88,0,21.77.12,32.65.01,1.16-1.01,2.28-.12,3.44Z"/>
        <polygon class="cls-2" points="104.22 59.8 102.04 59.8 104.14 60.92 104.22 59.8"/>
      </g>
      <polygon class="cls-2" points="134.33 97.95 135.57 94.69 135.38 97.97 134.33 97.95"/>
    </g>
    <path class="cls-2" d="m193.5,59.9h8.89c-.89,1.33-2.4,1.12-3.41,1.76-1.34.84-2.29,1.86-2.96,3.24-3.93,8.02-7.85,16.05-11.82,24.05-2.36,4.76-4.81,9.49-7.2,14.24-.18.35-.17.8-.32,1.56,5.44-.68,10.86,1.17,15.95-1.31,2.58-1.25,4.41-2.98,4.67-7.85q1.08.22,1.11,3.81c0,1.52,0,3.05,0,4.56q1.12.09,4.42-2.87c.15,1.88.57,3.52,2.7,4.12h-68.1c5.54-1.53,4.1-6.08,4.13-9.88.08-10.03.05-20.06.01-30.09,0-1.77-.13-3.6-2.44-4.06-.13-.45-.25-.9-.38-1.35,1.34.02,2.69.05,4.03.06,2.82.03,4.62,1.8,4.63,4.68.03,5.26.06,10.51-.01,15.77-.02,1.42.38,1.98,1.84,1.9,2.07-.1,4.15,0,6.23-.04,2.11-.04,3.65-.85,3.86-3.2.04-.49.14-.84.73-.78.5.05.54.42.54.8,0,2.6,0,5.2,0,8.02-.54-.21-.9-.26-.92-.37-.72-4.06-3.78-3.69-6.74-3.66-5.51.06-5.51.02-5.5,5.57,0,4.77.04,9.53-.02,14.3-.02,1.3.28,1.89,1.72,1.79,4.3-.29,8.62.27,12.93-.36,3.76-.55,5.55-3.09,7.09-6.08.8.23.11,1.49,1.09,1.59,0,.22,0,.44,0,.66-.18.11-.35.22-.53.33.18.16.35.33.53.49.65.66,1.36.42,1.71-.81,1.42-4.89,4.1-9.26,6.35-13.73,3.1-6.16,6.11-12.39,9.38-18.48,1.26-2.35,1.84-5.11,4.22-6.76,1.16.07,1.16-.99,1.6-1.62Z"/>
    <polygon class="cls-2" points="138.74 59.83 136.18 59.83 139.12 61.18 138.74 59.83"/>
    <path class="cls-2" d="m223.89,104.56c-.11.24-.22.48-.33.72-.15-.1-.43-.22-.43-.31.04-.48.43-.42.76-.41Z"/>
    <g>
      <path class="cls-2" d="m230.81,105.15c-3.64.04-7.28.58-10.93.13.11-.24.22-.48.33-.72,3.55-1.52,1.76-4.2,1.16-6.34-1.29-4.54-2.99-8.96-4.38-13.48-1.4-4.52-2.63-9.09-4.16-14.43-.31.92-.44,1.3-.55,1.61-1.05-.6,2.03-10.44,3.56-11.88,1.73,5.71,3.4,11.3,5.13,16.88,2.48,8.01,4.99,16.01,7.54,24,.45,1.42,1.56,2.41,2.72,3.31-.14.31-.28.62-.42.92Z"/>
      <path class="cls-2" d="m212.08,70.85s-8.56,29.63-9.66,30.6c.42.02.42,0,.42,0l9.81-30.6h-.58Z"/>
    </g>
    <polyline class="cls-2" points="81.51 71.62 82.27 69.58 86.04 59.44 83.59 71.56"/>
    <polyline class="cls-2" points="75.51 104.66 75.96 104.91 76.76 105.34 75.94 105.31"/>
    <polygon class="cls-2" points="212.29 69.44 201.95 101.87 202.85 101.45 212.84 70.31 212.29 69.44"/>
    <polygon class="cls-2" points="230.81 105.15 233.11 105.21 231.24 104.23 230.81 105.15"/>
    <polygon class="cls-2" points="220.22 104.56 217.89 105.46 233.11 105.21 220.22 104.56"/>
  </g>
</svg>